<svg width="40" height="40" fill="none" xmlns="http://www.w3.org/2000/svg"><path d="M21.675 30H17.37v-8.967H15v-4.119h2.37v-2.312c0-2.123 1.33-4.602 5.074-4.602 1.32 0 2.29.124 2.33.13l.397.05-.095 3.855-.438-.004c-.001 0-.985-.01-2.058-.01-.799 0-.905.197-.905.981v1.913H25.2l-.195 4.119h-3.33V30zm-3.415-.89h2.524v-8.967h3.37l.112-2.338h-3.482v-2.803c0-.926.213-1.872 1.795-1.872.635 0 1.24.003 1.627.007l.054-2.167a20.794 20.794 0 00-1.817-.08c-3.084 0-4.183 1.917-4.183 3.712v3.203h-2.37v2.338h2.37v8.967z" fill="#fff"/><path d="M18.26 29.11h2.524v-8.967h3.37l.112-2.338h-3.482v-2.803c0-.926.213-1.872 1.795-1.872.635 0 1.24.003 1.627.007l.054-2.167a20.794 20.794 0 00-1.817-.08c-3.084 0-4.183 1.917-4.183 3.712v3.203h-2.37v2.338h2.37v8.967z" fill="#fff"/></svg>