<?xml version="1.0" encoding="utf-8"?><svg xmlns="http://www.w3.org/2000/svg" xmlns:xlink="http://www.w3.org/1999/xlink"><symbol viewBox="0 0 40 40" id="facebook" xmlns="http://www.w3.org/2000/svg"><path d="M21.675 30H17.37v-8.967H15v-4.119h2.37v-2.312c0-2.123 1.33-4.602 5.074-4.602 1.32 0 2.29.124 2.33.13l.397.05-.095 3.855-.438-.004c-.001 0-.985-.01-2.058-.01-.799 0-.905.197-.905.981v1.913H25.2l-.195 4.119h-3.33V30zm-3.415-.89h2.524v-8.967h3.37l.112-2.338h-3.482v-2.803c0-.926.213-1.872 1.795-1.872.635 0 1.24.003 1.627.007l.054-2.167a20.794 20.794 0 00-1.817-.08c-3.084 0-4.183 1.917-4.183 3.712v3.203h-2.37v2.338h2.37v8.967z"/><path d="M18.26 29.11h2.524v-8.967h3.37l.112-2.338h-3.482v-2.803c0-.926.213-1.872 1.795-1.872.635 0 1.24.003 1.627.007l.054-2.167a20.794 20.794 0 00-1.817-.08c-3.084 0-4.183 1.917-4.183 3.712v3.203h-2.37v2.338h2.37v8.967z"/></symbol><symbol viewBox="0 0 40 40" id="twitter" xmlns="http://www.w3.org/2000/svg"><path d="M30 13.922a8.193 8.193 0 01-2.356.646 4.12 4.12 0 001.804-2.268 8.273 8.273 0 01-2.607.996 4.103 4.103 0 00-6.991 3.74 11.648 11.648 0 01-8.457-4.286 4.072 4.072 0 00-.554 2.062 4.1 4.1 0 001.824 3.414 4.103 4.103 0 01-1.858-.515v.052a4.107 4.107 0 003.29 4.023 4.155 4.155 0 01-1.08.143c-.266 0-.522-.026-.773-.076a4.105 4.105 0 003.832 2.85 8.232 8.232 0 01-5.095 1.753c-.332 0-.658-.02-.979-.056a11.597 11.597 0 006.289 1.846c7.547 0 11.673-6.252 11.673-11.673l-.014-.531A8.194 8.194 0 0030 13.922z"/></symbol><symbol viewBox="0 0 40 40" id="vk" xmlns="http://www.w3.org/2000/svg"><path d="M29.111 22.896c-.435-.519-.926-.982-1.402-1.43a47.147 47.147 0 01-.506-.481c-.224-.217-.333-.372-.345-.485-.011-.112.066-.278.243-.524.264-.369.546-.738.819-1.096.242-.318.492-.646.733-.977l.054-.074c.468-.645.953-1.312 1.212-2.125.074-.233.151-.578-.034-.88-.186-.303-.53-.393-.773-.434a1.96 1.96 0 00-.336-.022l-3.04-.003c-.525-.008-.89.24-1.088.737a17.85 17.85 0 01-.564 1.294c-.416.843-.945 1.815-1.712 2.624l-.034.036c-.052.055-.137.146-.181.167-.083-.052-.18-.35-.175-.505v-.011l-.002-3.493a.393.393 0 00-.004-.053c-.068-.498-.201-.998-.994-1.153a.4.4 0 00-.077-.008h-3.162c-.595 0-.91.27-1.161.565-.073.085-.267.313-.169.59.1.282.398.338.496.356.345.065.523.259.578.63.11.719.123 1.488.042 2.42-.022.25-.064.44-.13.598a.46.46 0 01-.047.087.462.462 0 01-.086-.048c-.242-.165-.425-.42-.601-.668-.705-.99-1.298-2.083-1.813-3.342-.212-.516-.61-.805-1.121-.812a76.136 76.136 0 00-2.753.001c-.414.007-.704.137-.863.386-.159.249-.153.566.017.944 1.219 2.695 2.325 4.655 3.588 6.357.889 1.198 1.784 2.029 2.816 2.616 1.085.618 2.308.92 3.727.92.161 0 .325-.004.492-.012.875-.04 1.232-.386 1.27-1.234.022-.448.072-.811.246-1.127.05-.088.104-.147.147-.158.046-.011.128.017.219.075.166.107.308.253.426.38l.356.393c.247.276.504.561.772.833.607.616 1.307.898 2.081.839l2.782.001h.026a.937.937 0 00.762-.486c.196-.345.193-.783-.009-1.17a5.887 5.887 0 00-.722-1.038zm.037 1.819c-.039.067-.086.08-.11.083l-2.781-.002c-.011 0-.023 0-.033.002-.548.045-1.014-.146-1.464-.603a22.62 22.62 0 01-.747-.806 3.024 3.024 0 00-.942-.91c-.361-.232-.66-.225-.847-.178-.186.046-.449.179-.651.546-.262.474-.32.986-.343 1.47-.014.296-.064.374-.085.394-.028.026-.12.072-.427.086-1.476.069-2.714-.194-3.786-.804-.933-.531-1.75-1.294-2.57-2.4-1.229-1.654-2.309-3.57-3.503-6.211a.67.67 0 01-.06-.187c.03-.01.09-.024.194-.025.87-.017 1.76-.018 2.725-.002.132.002.283.042.397.319.538 1.316 1.16 2.46 1.9 3.5.197.277.441.62.801.865.33.225.597.214.763.165.167-.048.398-.183.553-.55.1-.235.161-.501.191-.837.086-.997.07-1.825-.048-2.607-.083-.56-.374-.964-.832-1.17a.626.626 0 01.3-.06h3.12c.176.039.21.085.223.1.05.067.08.225.097.349l.003 3.46c-.007.332.155 1.068.707 1.27l.013.005c.503.163.835-.19 1.014-.38l.031-.033c.84-.887 1.406-1.922 1.847-2.817.23-.462.426-.94.59-1.352.083-.207.158-.24.337-.237h.008l3.043.003c.07 0 .144 0 .202.01a.646.646 0 01.224.067.63.63 0 01-.042.227c-.22.691-.648 1.278-1.1 1.9l-.053.074c-.233.32-.479.643-.717.955l-.005.007c-.276.362-.562.737-.832 1.115-.579.803-.528 1.336.194 2.036.17.166.346.33.515.49.48.452.933.88 1.337 1.36.212.255.452.56.627.895.091.176.069.335.022.418z"/><path d="M29.148 24.715c-.039.067-.086.08-.11.083l-2.781-.002c-.011 0-.023 0-.033.002-.548.045-1.014-.146-1.464-.603a22.62 22.62 0 01-.747-.806l-.009-.01a50.08 50.08 0 00-.353-.39 3.024 3.024 0 00-.58-.51c-.361-.232-.66-.225-.847-.178-.186.046-.449.179-.651.546-.262.474-.32.986-.343 1.47-.014.296-.064.374-.085.394-.028.026-.12.072-.427.086-1.476.069-2.714-.194-3.786-.804-.933-.531-1.75-1.294-2.57-2.4-1.229-1.654-2.309-3.57-3.503-6.211a.67.67 0 01-.06-.187c.03-.01.09-.024.194-.025.87-.017 1.76-.018 2.725-.002.132.002.283.042.397.319.538 1.316 1.16 2.46 1.9 3.5.197.277.441.62.801.865.33.225.597.214.763.165.167-.048.398-.183.553-.55.1-.235.161-.501.191-.837.086-.997.07-1.825-.048-2.607-.083-.56-.374-.964-.832-1.17a.626.626 0 01.3-.06h3.12c.176.039.21.085.223.1.05.067.08.225.097.349l.003 3.46c-.007.332.155 1.068.707 1.27l.013.005c.503.163.835-.19 1.014-.38l.031-.033c.84-.887 1.406-1.922 1.847-2.817.23-.462.426-.94.59-1.352.083-.207.158-.24.337-.237h.008l3.043.003c.07 0 .144 0 .202.01a.646.646 0 01.224.067.63.63 0 01-.042.227c-.22.691-.648 1.278-1.1 1.9l-.053.074c-.233.32-.479.643-.717.955l-.005.007c-.276.362-.562.737-.832 1.115-.579.803-.528 1.336.194 2.036.17.166.346.33.515.49.48.452.933.88 1.337 1.36.212.255.452.56.627.895.091.176.069.335.022.418z"/></symbol></svg>