<svg width="40" height="40" fill="none" xmlns="http://www.w3.org/2000/svg"><path d="M30 13.922a8.193 8.193 0 01-2.356.646 4.12 4.12 0 001.804-2.268 8.273 8.273 0 01-2.607.996 4.103 4.103 0 00-6.991 3.74 11.648 11.648 0 01-8.457-4.286 4.072 4.072 0 00-.554 2.062 4.1 4.1 0 001.824 3.414 4.103 4.103 0 01-1.858-.515v.052a4.107 4.107 0 003.29 4.023 4.155 4.155 0 01-1.08.143c-.266 0-.522-.026-.773-.076a4.105 4.105 0 003.832 2.85 8.232 8.232 0 01-5.095 1.753c-.332 0-.658-.02-.979-.056a11.597 11.597 0 006.289 1.846c7.547 0 11.673-6.252 11.673-11.673l-.014-.531A8.194 8.194 0 0030 13.922z" fill="#fff"/></svg>