<svg width="40" height="40" viewBox="0 0 40 40" fill="none" xmlns="http://www.w3.org/2000/svg">
<path d="M29.1114 22.8957C28.6763 22.3772 28.1848 21.9142 27.7095 21.4665C27.5424 21.3091 27.3696 21.1463 27.2032 20.9848C27.2032 20.9847 27.2033 20.9848 27.2032 20.9848C26.9794 20.7676 26.8697 20.6134 26.8583 20.4996C26.847 20.3877 26.9239 20.2217 27.1007 19.9763C27.3651 19.6072 27.647 19.2375 27.9196 18.88C28.162 18.5622 28.4125 18.2336 28.6527 17.9031L28.7066 17.8289C29.1751 17.1839 29.6596 16.5169 29.9192 15.7042C29.9934 15.4711 30.0703 15.1263 29.8846 14.8236C29.6989 14.5208 29.3544 14.431 29.1117 14.3899C28.9932 14.3697 28.8807 14.3681 28.776 14.3681L25.7367 14.3654C25.2112 14.3567 24.8466 14.6044 24.648 15.1018C24.489 15.4991 24.3012 15.9595 24.0837 16.3963C23.6675 17.2395 23.1386 18.2106 22.372 19.0197L22.338 19.0558C22.2858 19.1112 22.2005 19.2018 22.1567 19.2226C22.0737 19.1707 21.9778 18.8738 21.9822 18.7183C21.9823 18.7145 21.9824 18.7107 21.9824 18.7068L21.9797 15.2141C21.9797 15.1963 21.9784 15.1786 21.976 15.161C21.9079 14.6627 21.775 14.1631 20.982 14.0075C20.9566 14.0025 20.9307 14 20.9049 14H17.7433C17.1485 14 16.8339 14.2709 16.5817 14.5646C16.5087 14.6502 16.3147 14.8776 16.4135 15.1555C16.5135 15.4368 16.8115 15.4929 16.9093 15.5113C17.2538 15.5764 17.432 15.77 17.4872 16.1403C17.5962 16.8597 17.6095 17.6293 17.5293 18.561C17.5069 18.8112 17.4652 19.0013 17.3981 19.1594C17.3795 19.2032 17.3631 19.2303 17.3517 19.2463C17.3335 19.239 17.3052 19.225 17.266 19.1983C17.0239 19.0335 16.8414 18.7774 16.665 18.5298C15.9602 17.5401 15.3674 16.4471 14.8524 15.1878C14.6403 14.6717 14.2417 14.3835 13.7306 14.376C12.7568 14.3599 11.8562 14.3603 10.9783 14.3773C10.5642 14.3844 10.2738 14.5141 10.115 14.7627C9.95607 15.0117 9.96189 15.3293 10.1324 15.7067C11.351 18.4018 12.4574 20.3623 13.72 22.0637C14.6089 23.2616 15.5037 24.093 16.5361 24.6804C17.6207 25.2976 18.8439 25.6 20.263 25.6C20.4243 25.6 20.5885 25.5961 20.7549 25.5882C21.6304 25.5485 21.9866 25.2022 22.0255 24.3541C22.0473 23.9059 22.0974 23.5428 22.2714 23.2273C22.3201 23.139 22.375 23.0798 22.4183 23.069C22.4643 23.0576 22.5459 23.0856 22.6367 23.1442C22.8026 23.2513 22.9454 23.3966 23.0629 23.5242C23.182 23.6538 23.3023 23.7877 23.4187 23.9172C23.6665 24.193 23.9227 24.4781 24.1911 24.75C24.7983 25.3656 25.4982 25.6479 26.2723 25.5887L29.0538 25.59C29.0537 25.59 29.0539 25.59 29.0538 25.59C29.0626 25.59 29.0716 25.5897 29.0804 25.5892C29.4012 25.5679 29.6786 25.3913 29.8415 25.1044C30.0376 24.7589 30.0347 24.3214 29.8334 23.9334C29.6234 23.5301 29.351 23.183 29.1114 22.8957ZM29.1477 24.7148C29.1094 24.7823 29.0621 24.7946 29.0376 24.7976L26.2568 24.7963C26.2567 24.7963 26.2569 24.7963 26.2568 24.7963C26.2458 24.7963 26.2345 24.7967 26.2236 24.7977C25.6758 24.843 25.2101 24.6515 24.7598 24.195C24.5044 23.9362 24.2545 23.6581 24.0128 23.3892C24.01 23.3861 24.0072 23.383 24.0043 23.3798C23.8892 23.2517 23.7703 23.1195 23.6509 22.9894C23.4992 22.8246 23.3116 22.6352 23.0707 22.4796C22.7099 22.2467 22.4109 22.2537 22.2237 22.3007C22.0384 22.3471 21.775 22.4796 21.5729 22.8465C21.311 23.3212 21.2532 23.8333 21.2297 24.3171C21.2161 24.613 21.1658 24.6912 21.1448 24.711C21.1173 24.7371 21.0252 24.7828 20.7182 24.7968C19.2425 24.8658 18.0042 24.6029 16.9318 23.9927C15.9989 23.4619 15.182 22.6993 14.3611 21.5932C13.1335 19.939 12.0535 18.0234 10.8591 15.3819C10.8158 15.2863 10.8025 15.2265 10.7986 15.1946C10.8291 15.1846 10.8886 15.1715 10.993 15.1696C11.8621 15.1529 12.7532 15.1524 13.7182 15.1684C13.8503 15.1704 14.0007 15.2098 14.1146 15.487C14.6527 16.8028 15.2742 17.9479 16.0148 18.9879C16.2115 19.2639 16.4563 19.6075 16.816 19.8523C17.1455 20.0767 17.4129 20.066 17.5792 20.0175C17.7456 19.969 17.9765 19.8342 18.1321 19.4679C18.2324 19.2318 18.2931 18.9659 18.3231 18.63C18.409 17.6334 18.3937 16.8048 18.2753 16.0233C18.1918 15.4633 17.9011 15.0588 17.4432 14.8522C17.5245 14.8101 17.6161 14.7925 17.7434 14.7925H20.8636C21.0392 14.8317 21.0739 14.8777 21.0858 14.8934C21.1364 14.9603 21.1653 15.1185 21.183 15.242L21.1856 18.7026C21.1786 19.0344 21.3407 19.7701 21.8926 19.9719C21.8972 19.9735 21.9018 19.9751 21.9063 19.9766C22.4088 20.1399 22.7412 19.7871 22.9196 19.5975L22.9514 19.5639C23.7911 18.6775 24.3566 17.6418 24.7983 16.7469C25.0286 16.2848 25.2236 15.8068 25.3884 15.3947C25.4709 15.1881 25.546 15.1541 25.7252 15.1578C25.7276 15.1579 25.7301 15.1579 25.7325 15.1579L28.7757 15.1606C28.8465 15.1606 28.9204 15.1614 28.9777 15.1711C29.1227 15.1957 29.1824 15.2256 29.2021 15.238C29.2041 15.261 29.2037 15.327 29.1598 15.4649C28.9391 16.156 28.5125 16.7432 28.0609 17.3648L28.0069 17.4392C27.7741 17.7596 27.5282 18.0821 27.2904 18.3941C27.2886 18.3965 27.2867 18.3989 27.2849 18.4012C27.0088 18.7634 26.7233 19.1378 26.4526 19.5156C25.874 20.3186 25.9248 20.8515 26.647 21.5521C26.8176 21.7178 26.9926 21.8826 27.1618 22.0419L27.1628 22.0429C27.6422 22.4945 28.095 22.9211 28.4991 23.4027C28.7108 23.6565 28.9508 23.9614 29.1257 24.2974C29.217 24.4733 29.1946 24.6322 29.1477 24.7148Z" fill="#C0C0C0"/>
<path d="M29.1477 24.7148C29.1094 24.7823 29.0621 24.7946 29.0376 24.7976L26.2568 24.7963C26.2458 24.7963 26.2345 24.7967 26.2236 24.7977C25.6758 24.843 25.2101 24.6515 24.7598 24.195C24.5044 23.9362 24.2545 23.6581 24.0128 23.3892L24.0043 23.3798C23.8892 23.2517 23.7703 23.1195 23.6509 22.9894C23.4992 22.8246 23.3116 22.6352 23.0707 22.4796C22.7099 22.2467 22.4109 22.2537 22.2237 22.3007C22.0384 22.3471 21.775 22.4796 21.5729 22.8465C21.311 23.3212 21.2532 23.8333 21.2297 24.3171C21.2161 24.613 21.1658 24.6912 21.1448 24.711C21.1173 24.7371 21.0252 24.7828 20.7182 24.7968C19.2425 24.8658 18.0042 24.6029 16.9318 23.9927C15.9989 23.4619 15.182 22.6993 14.3611 21.5932C13.1335 19.939 12.0535 18.0234 10.8591 15.3819C10.8158 15.2863 10.8025 15.2265 10.7986 15.1946C10.8291 15.1846 10.8886 15.1715 10.993 15.1696C11.8621 15.1529 12.7532 15.1524 13.7182 15.1684C13.8503 15.1704 14.0007 15.2098 14.1146 15.487C14.6527 16.8028 15.2742 17.9479 16.0148 18.9879C16.2115 19.2639 16.4563 19.6075 16.816 19.8523C17.1455 20.0767 17.4129 20.066 17.5792 20.0175C17.7456 19.969 17.9765 19.8342 18.1321 19.4679C18.2324 19.2318 18.2931 18.9659 18.3231 18.63C18.409 17.6334 18.3937 16.8048 18.2753 16.0233C18.1918 15.4633 17.9011 15.0588 17.4432 14.8522C17.5245 14.8101 17.6161 14.7925 17.7434 14.7925H20.8636C21.0392 14.8317 21.0739 14.8777 21.0858 14.8934C21.1364 14.9603 21.1653 15.1185 21.183 15.242L21.1856 18.7026C21.1786 19.0344 21.3407 19.7701 21.8926 19.9719C21.8972 19.9735 21.9018 19.9751 21.9063 19.9766C22.4088 20.1399 22.7412 19.7871 22.9196 19.5975L22.9514 19.5639C23.7911 18.6775 24.3566 17.6418 24.7983 16.7469C25.0286 16.2848 25.2236 15.8068 25.3884 15.3947C25.4709 15.1881 25.546 15.1541 25.7252 15.1578L25.7325 15.1579L28.7757 15.1606C28.8465 15.1606 28.9204 15.1614 28.9777 15.1711C29.1227 15.1957 29.1824 15.2256 29.2021 15.238C29.2041 15.261 29.2037 15.327 29.1598 15.4649C28.9391 16.156 28.5125 16.7432 28.0609 17.3648L28.0069 17.4392C27.7741 17.7596 27.5282 18.0821 27.2904 18.3941L27.2849 18.4012C27.0088 18.7634 26.7233 19.1378 26.4526 19.5156C25.874 20.3186 25.9248 20.8515 26.647 21.5521C26.8176 21.7178 26.9926 21.8826 27.1618 22.0419L27.1628 22.0429C27.6422 22.4945 28.095 22.9211 28.4991 23.4027C28.7108 23.6565 28.9508 23.9614 29.1257 24.2974C29.217 24.4733 29.1946 24.6322 29.1477 24.7148Z" fill="#C0C0C0"/>
</svg>
