<svg width="40" height="40" viewBox="0 0 40 40" fill="none" xmlns="http://www.w3.org/2000/svg">
<path d="M21.6747 30H17.3709V21.0328H15V16.9145H17.3708V14.602C17.3708 12.479 18.6991 10 22.4441 10C23.7643 10 24.7335 10.1237 24.774 10.1291L25.1713 10.1807L25.0756 14.0347L24.6378 14.0307C24.6369 14.0307 23.653 14.0213 22.5798 14.0213C21.781 14.0213 21.6751 14.2184 21.6751 15.0025V16.9154H25.2002L25.0049 21.0337H21.6755L21.6747 30ZM18.2603 29.11H20.7842V20.1433H24.1545L24.2658 17.8045H20.7842V15.0016C20.7842 14.076 20.9973 13.1304 22.5788 13.1304C23.2143 13.1304 23.8181 13.1335 24.2065 13.1367L24.2604 10.9701C23.8674 10.9349 23.2138 10.89 22.4431 10.89C19.359 10.89 18.2598 12.8074 18.2598 14.602V17.8045H15.8891V20.1433H18.2599L18.2603 29.11Z" fill="white"/>
<path d="M18.2603 29.11H20.7842V20.1433H24.1545L24.2658 17.8045H20.7842V15.0016C20.7842 14.076 20.9973 13.1304 22.5788 13.1304C23.2143 13.1304 23.8181 13.1335 24.2065 13.1367L24.2604 10.9701C23.8674 10.9349 23.2138 10.89 22.4431 10.89C19.359 10.89 18.2598 12.8074 18.2598 14.602V17.8045H15.8891V20.1433H18.2599L18.2603 29.11Z" fill="white"/>
</svg>
