<svg width="40" height="40" viewBox="0 0 40 40" fill="none" xmlns="http://www.w3.org/2000/svg">
<path d="M30 13.9221C29.2639 14.2483 28.4741 14.4695 27.6442 14.5683C28.4915 14.0609 29.1402 13.256 29.4476 12.2999C28.6527 12.7698 27.7754 13.111 26.8406 13.296C26.092 12.4974 25.0271 12 23.8461 12C21.5803 12 19.7431 13.8372 19.7431 16.1017C19.7431 16.4229 19.7794 16.7366 19.8494 17.0366C16.44 16.8653 13.4168 15.2319 11.3935 12.7498C11.0398 13.3547 10.8386 14.0596 10.8386 14.812C10.8386 16.2355 11.5634 17.4915 12.6632 18.2263C11.9909 18.2038 11.3585 18.0189 10.8048 17.7114V17.7627C10.8048 19.7498 12.2196 21.4082 14.0955 21.7857C13.7518 21.8782 13.3894 21.9294 13.0144 21.9294C12.7495 21.9294 12.4933 21.9032 12.2421 21.8532C12.7644 23.4841 14.2792 24.6701 16.0739 24.7026C14.6704 25.8024 12.9007 26.4561 10.9786 26.4561C10.6474 26.4561 10.3212 26.4361 10 26.3998C11.8159 27.5659 13.9718 28.2457 16.2888 28.2457C23.8362 28.2457 27.9617 21.9944 27.9617 16.5729L27.9479 16.0418C28.754 15.4668 29.4513 14.7445 30 13.9221Z" fill="white"/>
</svg>
